<?xml version="1.0" encoding="UTF-8" standalone="no"?>
<!DOCTYPE svg PUBLIC "-//W3C//DTD SVG 1.1//EN" "http://www.w3.org/Graphics/SVG/1.1/DTD/svg11.dtd">
<svg width="100%" height="100%" viewBox="0 0 1059 466" version="1.1" xmlns="http://www.w3.org/2000/svg" xmlns:xlink="http://www.w3.org/1999/xlink" xml:space="preserve" xmlns:serif="http://www.serif.com/" style="fill-rule:evenodd;clip-rule:evenodd;stroke-linejoin:round;stroke-miterlimit:2;">
    <g>
        <path d="M91.053,0L77.334,57.707L179.614,57.746L203.614,57.746C269.361,57.746 309.524,84.186 298.36,131.146C286.213,182.279 228.747,204.546 167.69,204.546L144.743,204.546L174.53,79.096L72.26,79.096L28.739,262.296L173.789,262.296C282.859,262.296 386.549,204.723 404.799,131.146C408.146,117.639 407.68,83.893 399.44,63.787C399.227,63 399.014,62.387 398.254,60.787C397.961,60.134 397.694,57.146 399.401,56.506C400.348,56.146 402.108,58 402.334,58.547C403.187,60.787 403.84,62.453 403.84,62.453L496.133,323.053L731.103,57.843L830.638,57.753L854.638,57.753C920.398,57.753 960.888,84.193 949.73,131.153C937.583,182.286 879.783,204.553 818.73,204.553L795.771,204.553L825.57,79.083L723.3,79.083L679.767,262.293L824.837,262.293C933.887,262.293 1038.32,204.893 1055.84,131.143C1073.36,57.393 996.73,-0.007 887.147,-0.007L670.747,-0.007C670.747,-0.007 613.428,67.873 602.788,80.686C545.668,149.473 535.547,167.912 533.827,172.672C534.067,167.872 532.013,149.26 507.653,79.713C501.173,61.193 480.294,-0.008 480.294,-0.008L91.044,-0.008L91.053,0ZM499.823,324.16C223.783,324.16 -0.007,355.88 -0.007,395C-0.007,434.12 223.783,465.84 499.823,465.84C775.863,465.84 999.653,434.12 999.653,395C999.653,355.88 775.863,324.16 499.823,324.16ZM481.729,372.787C544.769,372.787 595.859,383.36 595.859,396.4C595.859,409.44 544.764,420.013 481.729,420.013C418.702,420.013 367.599,409.44 367.599,396.4C367.599,383.36 418.705,372.787 481.729,372.787Z" style="fill:white;fill-rule:nonzero;"/>
    </g>
</svg>
